<svg width="27" height="28" viewBox="0 0 27 28" fill="none" xmlns="http://www.w3.org/2000/svg">
<path d="M3.96865 10.5448C4.68245 7.50181 7.05845 5.1258 10.1015 4.41201C12.2991 3.89652 14.5862 3.89652 16.7838 4.41201C19.8268 5.1258 22.2028 7.50181 22.9166 10.5448C23.4321 12.7424 23.4321 15.0295 22.9166 17.2272C22.2028 20.2702 19.8268 22.6462 16.7838 23.36C14.5862 23.8755 12.2991 23.8755 10.1015 23.36C7.05845 22.6462 4.68245 20.2702 3.96865 17.2272C3.45316 15.0295 3.45316 12.7424 3.96865 10.5448Z" stroke="white" stroke-width="1.64343"/>
<path d="M9.60742 13.886L17.2768 13.886M17.2768 13.886L14.5377 11.1469M17.2768 13.886L14.5377 16.625" stroke="white" stroke-width="1.64343" stroke-linecap="round" stroke-linejoin="round"/>
</svg>
